<svg width="30" height="28" viewBox="0 0 30 28" fill="none" xmlns="http://www.w3.org/2000/svg">
<path d="M7.09132 12.1609H6.68432V11.0175C6.68432 10.7748 6.48756 10.578 6.24486 10.578C6.00216 10.578 5.8054 10.7748 5.8054 11.0175V12.1609H5.39812C4.83555 12.1609 4.37793 12.6186 4.37793 13.1811V19.905C4.37793 20.4676 4.83561 20.9252 5.39812 20.9252H5.8054V22.0687C5.8054 22.3114 6.00216 22.5082 6.24486 22.5082C6.48756 22.5082 6.68432 22.3114 6.68432 22.0687V20.9252H7.09132C7.65388 20.9252 8.1115 20.4676 8.1115 19.905V18.0541C8.1115 17.8114 7.91474 17.6146 7.67204 17.6146C7.42935 17.6146 7.23259 17.8114 7.23259 18.0541V19.905C7.23259 19.983 7.16919 20.0463 7.09132 20.0463H5.39812C5.32018 20.0463 5.25684 19.9829 5.25684 19.905V13.1811C5.25684 13.1032 5.32024 13.0398 5.39812 13.0398H7.09132C7.16925 13.0398 7.23259 13.1032 7.23259 13.1811V16.0008C7.23259 16.2435 7.42935 16.4403 7.67204 16.4403C7.91474 16.4403 8.1115 16.2435 8.1115 16.0008V13.1811C8.1115 12.6186 7.65382 12.1609 7.09132 12.1609V12.1609Z" fill="url(#paint0_linear_710_3)"/>
<path d="M11.469 9.4311H11.062V7.41651C11.062 7.17381 10.8652 6.97705 10.6225 6.97705C10.3798 6.97705 10.1831 7.17381 10.1831 7.41651V9.43104H9.7758C9.2133 9.43104 8.75562 9.88872 8.75562 10.4512V17.1752C8.75562 17.7377 9.2133 18.1953 9.7758 18.1953H10.1831V18.4677C10.1831 18.7104 10.3798 18.9071 10.6225 18.9071C10.8652 18.9071 11.062 18.7104 11.062 18.4677V18.1953H11.469C12.0316 18.1953 12.4892 17.7377 12.4892 17.1752V10.4513C12.4892 9.88872 12.0315 9.4311 11.469 9.4311ZM11.6103 17.1752C11.6103 17.2531 11.5469 17.3165 11.469 17.3165H9.7758C9.69793 17.3165 9.63453 17.2531 9.63453 17.1752V10.4513C9.63453 10.3734 9.69793 10.31 9.7758 10.31H11.469C11.5469 10.31 11.6103 10.3734 11.6103 10.4513V17.1752Z" fill="url(#paint1_linear_710_3)"/>
<path d="M2.71339 10.7091H2.30639V9.56568C2.30639 9.32298 2.10963 9.12622 1.86693 9.12622C1.62423 9.12622 1.42747 9.32298 1.42747 9.56568V10.7091H1.02019C0.45768 10.7091 0 11.1668 0 11.7293V12.9363C0 13.4989 0.45768 13.9565 1.02019 13.9565H1.42747V23.5206C1.42747 23.7633 1.62423 23.96 1.86693 23.96C2.10963 23.96 2.30639 23.7633 2.30639 23.5206V13.9565H2.71339C3.27595 13.9565 3.73357 13.4988 3.73357 12.9363V11.7293C3.73357 11.1668 3.27595 10.7091 2.71339 10.7091ZM2.85466 12.9363C2.85466 13.0142 2.79126 13.0776 2.71339 13.0776H1.02019C0.942255 13.0776 0.878915 13.0142 0.878915 12.9363V11.7293C0.878915 11.6513 0.942314 11.588 1.02019 11.588H2.71339C2.79132 11.588 2.85466 11.6514 2.85466 11.7293V12.9363Z" fill="url(#paint2_linear_710_3)"/>
<path d="M15.8467 13.0891H15.4397V12.5264C15.4397 12.2837 15.2429 12.0869 15.0002 12.0869C14.7575 12.0869 14.5608 12.2837 14.5608 12.5264V13.0891H14.1535C13.5909 13.0891 13.1333 13.5468 13.1333 14.1093V17.9296C13.1333 18.4922 13.591 18.9498 14.1535 18.9498H14.5608V20.674C14.5608 20.9167 14.7575 21.1135 15.0002 21.1135C15.2429 21.1135 15.4397 20.9167 15.4397 20.674V18.9498H15.8467C16.4093 18.9498 16.8669 18.4922 16.8669 17.9296V14.1093C16.8669 13.5468 16.4092 13.0891 15.8467 13.0891ZM15.988 17.9296C15.988 18.0075 15.9246 18.0709 15.8467 18.0709H14.1535C14.0756 18.0709 14.0122 18.0075 14.0122 17.9296V14.1093C14.0122 14.0314 14.0756 13.968 14.1535 13.968H15.8467C15.9246 13.968 15.988 14.0314 15.988 14.1093V17.9296Z" fill="url(#paint3_linear_710_3)"/>
<path d="M20.2244 15.1205H18.5312C17.9686 15.1205 17.511 15.5782 17.511 16.1407V20.5417C17.511 21.1043 17.9687 21.5619 18.5312 21.5619H18.9385V26.611C18.9385 26.8537 19.1352 27.0505 19.3779 27.0505C19.6206 27.0505 19.8174 26.8537 19.8174 26.611V21.5619H20.2244C20.7869 21.5619 21.2446 21.1042 21.2446 20.5417V16.1407C21.2445 15.5782 20.7869 15.1205 20.2244 15.1205V15.1205ZM20.3656 20.5417C20.3656 20.6197 20.3022 20.683 20.2243 20.683H18.5311C18.4532 20.683 18.3898 20.6196 18.3898 20.5417V16.1407C18.3898 16.0628 18.4532 15.9995 18.5311 15.9995H20.2243C20.3022 15.9995 20.3656 16.0629 20.3656 16.1407V20.5417Z" fill="url(#paint4_linear_710_3)"/>
<path d="M25.6222 14.6785V11.4389C25.6222 10.8764 25.1646 10.4187 24.6021 10.4187H24.1951V9.27527C24.1951 9.03258 23.9983 8.83582 23.7556 8.83582C23.5129 8.83582 23.3161 9.03258 23.3161 9.27527V10.4187H22.9089C22.3463 10.4187 21.8887 10.8764 21.8887 11.4389V14.6785C21.8887 15.2411 22.3464 15.6987 22.9089 15.6987H23.3161V20.3265C23.3161 20.5692 23.5129 20.766 23.7556 20.766C23.9983 20.766 24.1951 20.5692 24.1951 20.3265V15.6987H24.6021C25.1646 15.6987 25.6222 15.2411 25.6222 14.6785ZM22.7676 14.6785V11.4389C22.7676 11.361 22.831 11.2977 22.9089 11.2977H24.6021C24.68 11.2977 24.7433 11.3611 24.7433 11.4389V14.6785C24.7433 14.7564 24.6799 14.8198 24.6021 14.8198H22.9089C22.831 14.8198 22.7676 14.7564 22.7676 14.6785Z" fill="url(#paint5_linear_710_3)"/>
<path d="M28.9797 9.25736H28.5727V8.1139C28.5727 7.8712 28.376 7.67444 28.1333 7.67444C27.8906 7.67444 27.6938 7.8712 27.6938 8.1139V9.25736H27.2865C26.724 9.25736 26.2664 9.71504 26.2664 10.2775V13.9199C26.2664 14.1626 26.4631 14.3593 26.7058 14.3593C26.9485 14.3593 27.1453 14.1626 27.1453 13.9199V10.2775C27.1453 10.1997 27.2087 10.1363 27.2865 10.1363H28.9797C29.0577 10.1363 29.121 10.1997 29.121 10.2775V18.163C29.121 18.2409 29.0576 18.3043 28.9797 18.3043H27.2865C27.2086 18.3043 27.1453 18.2409 27.1453 18.163V15.973C27.1453 15.7303 26.9485 15.5336 26.7058 15.5336C26.4631 15.5336 26.2664 15.7303 26.2664 15.973V18.1629C26.2664 18.7255 26.724 19.1831 27.2865 19.1831H27.6938V22.0688C27.6938 22.3115 27.8906 22.5082 28.1333 22.5082C28.376 22.5082 28.5727 22.3115 28.5727 22.0688V19.1831H28.9797C29.5423 19.1831 29.9999 18.7254 29.9999 18.1629V10.2775C29.9999 9.71499 29.5423 9.25736 28.9797 9.25736Z" fill="url(#paint6_linear_710_3)"/>
<path d="M13.2059 9.46667C13.2059 9.70936 13.4027 9.90612 13.6454 9.90612C13.8881 9.90612 14.0848 9.70936 14.0848 9.46667V9.29223H14.2593C14.502 9.29223 14.6987 9.09547 14.6987 8.85278C14.6987 8.61008 14.502 8.41333 14.2593 8.41333H14.0848V8.23889C14.0848 7.9962 13.8881 7.79944 13.6454 7.79944C13.4027 7.79944 13.2059 7.9962 13.2059 8.23889V8.41333H13.0315C12.7888 8.41333 12.592 8.61008 12.592 8.85278C12.592 9.09547 12.7888 9.29223 13.0315 9.29223H13.2059V9.46667Z" fill="url(#paint7_linear_710_3)"/>
<path d="M26.4106 21.2599H26.2362V21.0854C26.2362 20.8428 26.0394 20.646 25.7967 20.646C25.5541 20.646 25.3573 20.8428 25.3573 21.0854V21.2599H25.1829C24.9402 21.2599 24.7434 21.4566 24.7434 21.6993C24.7434 21.942 24.9402 22.1388 25.1829 22.1388H25.3573V22.3132C25.3573 22.5559 25.5541 22.7527 25.7967 22.7527C26.0394 22.7527 26.2362 22.5559 26.2362 22.3132V22.1388H26.4106C26.6533 22.1388 26.8501 21.942 26.8501 21.6993C26.8501 21.4566 26.6533 21.2599 26.4106 21.2599Z" fill="url(#paint8_linear_710_3)"/>
<path d="M19.3777 9.73861C21.8008 9.73861 23.7722 7.76721 23.7722 5.34404C23.7722 2.92087 21.8008 0.949463 19.3777 0.949463C18.6099 0.949463 17.8529 1.15167 17.1886 1.53418C16.9782 1.65529 16.9059 1.92395 17.0271 2.1343C17.1481 2.34465 17.4168 2.41702 17.6272 2.29584C18.1583 1.99004 18.7637 1.82838 19.3778 1.82838C21.3163 1.82838 22.8933 3.4055 22.8933 5.34404C22.8933 7.28257 21.3163 8.8597 19.3778 8.8597C17.4393 8.8597 15.8623 7.28257 15.8623 5.34404C15.8623 4.72657 16.0255 4.11842 16.3344 3.58515C16.456 3.37515 16.3844 3.10626 16.1744 2.98462C15.9644 2.86304 15.6956 2.93458 15.5739 3.14458C15.1876 3.81144 14.9834 4.572 14.9834 5.34398C14.9833 7.7672 16.9546 9.73861 19.3777 9.73861V9.73861Z" fill="url(#paint9_linear_710_3)"/>
<path d="M18.0747 6.93202C18.0747 7.13293 18.2097 7.30198 18.3938 7.35436V7.53858C18.3938 7.78127 18.5906 7.97803 18.8333 7.97803C19.076 7.97803 19.2727 7.78127 19.2727 7.53858V7.37141H19.7164V7.53858C19.7164 7.78127 19.9132 7.97803 20.1559 7.97803C20.3986 7.97803 20.5954 7.78127 20.5954 7.53858V7.10663C20.8822 6.88069 21.0673 6.53118 21.0673 6.1386C21.0673 5.83649 20.9576 5.55981 20.7766 5.34518C20.9576 5.13055 21.0673 4.85387 21.0673 4.55176C21.0673 4.15918 20.8822 3.80967 20.5954 3.58374V3.15002C20.5954 2.90733 20.3986 2.71057 20.1559 2.71057C19.9132 2.71057 19.7164 2.90733 19.7164 3.15002V3.31895H19.2727V3.15002C19.2727 2.90733 19.076 2.71057 18.8333 2.71057C18.5906 2.71057 18.3938 2.90733 18.3938 3.15002V3.336C18.2097 3.38838 18.0747 3.55743 18.0747 3.75834V6.93202ZM20.1884 4.55176C20.1884 4.74694 20.0296 4.90573 19.8344 4.90573H18.9536V4.1978H19.8344C20.0296 4.1978 20.1884 4.35659 20.1884 4.55176ZM20.1884 6.1386C20.1884 6.33377 20.0296 6.49256 19.8344 6.49256H18.9536V5.78463H19.8344C20.0296 5.78463 20.1884 5.94342 20.1884 6.1386Z" fill="url(#paint10_linear_710_3)"/>
<defs>
<linearGradient id="paint0_linear_710_3" x1="6.24472" y1="10.578" x2="6.24472" y2="22.5082" gradientUnits="userSpaceOnUse">
<stop stop-color="white"/>
<stop offset="1" stop-color="white"/>
</linearGradient>
<linearGradient id="paint1_linear_710_3" x1="10.6224" y1="6.97705" x2="10.6224" y2="18.9071" gradientUnits="userSpaceOnUse">
<stop stop-color="white"/>
<stop offset="1" stop-color="white"/>
</linearGradient>
<linearGradient id="paint2_linear_710_3" x1="1.86679" y1="9.12622" x2="1.86679" y2="23.96" gradientUnits="userSpaceOnUse">
<stop stop-color="white"/>
<stop offset="1" stop-color="white"/>
</linearGradient>
<linearGradient id="paint3_linear_710_3" x1="15.0001" y1="12.0869" x2="15.0001" y2="21.1135" gradientUnits="userSpaceOnUse">
<stop stop-color="white"/>
<stop offset="1" stop-color="white"/>
</linearGradient>
<linearGradient id="paint4_linear_710_3" x1="19.3778" y1="15.1205" x2="19.3778" y2="27.0505" gradientUnits="userSpaceOnUse">
<stop stop-color="white"/>
<stop offset="1" stop-color="white"/>
</linearGradient>
<linearGradient id="paint5_linear_710_3" x1="23.7555" y1="8.83582" x2="23.7555" y2="20.766" gradientUnits="userSpaceOnUse">
<stop stop-color="white"/>
<stop offset="1" stop-color="white"/>
</linearGradient>
<linearGradient id="paint6_linear_710_3" x1="28.1331" y1="7.67444" x2="28.1331" y2="22.5082" gradientUnits="userSpaceOnUse">
<stop stop-color="white"/>
<stop offset="1" stop-color="white"/>
</linearGradient>
<linearGradient id="paint7_linear_710_3" x1="13.6454" y1="7.79944" x2="13.6454" y2="9.90612" gradientUnits="userSpaceOnUse">
<stop stop-color="white"/>
<stop offset="1" stop-color="white"/>
</linearGradient>
<linearGradient id="paint8_linear_710_3" x1="25.7967" y1="20.646" x2="25.7967" y2="22.7527" gradientUnits="userSpaceOnUse">
<stop stop-color="white"/>
<stop offset="1" stop-color="white"/>
</linearGradient>
<linearGradient id="paint9_linear_710_3" x1="19.3778" y1="0.949463" x2="19.3778" y2="9.73861" gradientUnits="userSpaceOnUse">
<stop stop-color="white"/>
<stop offset="1" stop-color="white"/>
</linearGradient>
<linearGradient id="paint10_linear_710_3" x1="19.571" y1="2.71057" x2="19.571" y2="7.97803" gradientUnits="userSpaceOnUse">
<stop stop-color="white"/>
<stop offset="1" stop-color="white"/>
</linearGradient>
</defs>
</svg>
