<svg width="18" height="30" viewBox="0 0 18 30" fill="none" xmlns="http://www.w3.org/2000/svg">
<path d="M10.892 18.2928V7.8117C10.892 7.56895 10.6953 7.37225 10.4526 7.37225C10.2099 7.37225 10.0131 7.56895 10.0131 7.8117V18.528C10.0131 18.6778 10.0895 18.8173 10.2157 18.8981C11.8195 19.9245 12.777 21.6725 12.777 23.5739C12.777 25.0702 12.1902 26.4731 11.1246 27.5238C10.0783 28.5556 8.69804 29.1211 7.23039 29.1211C7.20373 29.1211 7.17707 29.1209 7.15041 29.1205C5.70795 29.1003 4.34629 28.5229 3.31616 27.4947C2.28602 26.4664 1.70624 25.1057 1.68356 23.6634C1.65303 21.7252 2.61028 19.9437 4.24422 18.8981C4.37043 18.8173 4.44678 18.6778 4.44678 18.528V3.6621C4.44678 2.12748 5.69535 0.878904 7.22998 0.878904C8.7646 0.878904 10.0132 2.12748 10.0132 3.6621V5.73854C10.0132 5.9813 10.2099 6.178 10.4526 6.178C10.6953 6.178 10.8921 5.9813 10.8921 5.73854V3.6621C10.8921 1.64279 9.24923 0 7.22998 0C5.21072 0 3.56787 1.64279 3.56787 3.6621V18.2928C1.79934 19.5186 0.770731 21.5136 0.804774 23.6773C0.831083 25.3494 1.50245 26.9261 2.6953 28.1167C3.88803 29.3073 5.4659 29.9759 7.13816 29.9994C7.1691 29.9998 7.19998 30.0001 7.2308 30.0001C8.93089 30.0001 10.5297 29.345 11.7419 28.1497C12.9763 26.9324 13.6561 25.3074 13.6561 23.574C13.6559 21.4527 12.6272 19.4963 10.892 18.2928V18.2928Z" fill="url(#paint0_linear_710_320)"/>
<path d="M7.17498 27.3629C6.84053 27.3582 6.5083 27.3084 6.18744 27.2147C5.95441 27.1467 5.71043 27.2805 5.64246 27.5135C5.57443 27.7464 5.70814 27.9904 5.94111 28.0584C6.33803 28.1743 6.74906 28.236 7.16303 28.2418C7.18465 28.2421 7.20603 28.2422 7.22766 28.2422C8.46445 28.2422 9.62713 27.7663 10.5076 26.8982C11.4044 26.0139 11.8982 24.8334 11.8982 23.5741C11.8982 21.9738 11.0921 20.5026 9.74203 19.6385C9.36152 19.395 9.1343 18.9799 9.1343 18.5281V16.2598C9.1343 16.017 8.93754 15.8203 8.69484 15.8203H5.76516C5.52246 15.8203 5.3257 16.017 5.3257 16.2598V18.528C5.3257 18.9797 5.09853 19.3949 4.71797 19.6384C3.34254 20.5187 2.5367 22.0182 2.56236 23.6497C2.5817 24.8778 3.08396 26.0343 3.97676 26.9063C4.15031 27.0758 4.42851 27.0727 4.5982 26.8989C4.76777 26.7253 4.76449 26.4471 4.59088 26.2775C3.86514 25.5687 3.45685 24.6306 3.44115 23.6358C3.42035 22.3112 4.07473 21.0936 5.19176 20.3787C5.82598 19.9728 6.20461 19.281 6.20461 18.528V16.6992H8.25539V18.528C8.25539 19.281 8.63402 19.9728 9.26824 20.3787C10.3647 21.0804 11.0193 22.2749 11.0193 23.574C11.0193 24.5961 10.6184 25.5544 9.89045 26.2723C9.1633 26.9893 8.20025 27.3747 7.17498 27.3629V27.3629Z" fill="url(#paint1_linear_710_320)"/>
<path d="M8.69484 3.6947H6.06445C5.82176 3.6947 5.625 3.8914 5.625 4.13416C5.625 4.37691 5.82176 4.57361 6.06445 4.57361H8.6949C8.9376 4.57361 9.13436 4.37691 9.13436 4.13416C9.13436 3.8914 8.93754 3.6947 8.69484 3.6947Z" fill="url(#paint2_linear_710_320)"/>
<path d="M8.69484 5.41626H7.5293C7.2866 5.41626 7.08984 5.61296 7.08984 5.85571C7.08984 6.09847 7.2866 6.29517 7.5293 6.29517H8.6949C8.9376 6.29517 9.13436 6.09847 9.13436 5.85571C9.13436 5.61296 8.93754 5.41626 8.69484 5.41626Z" fill="url(#paint3_linear_710_320)"/>
<path d="M6.06445 8.01672H8.6949C8.9376 8.01672 9.13436 7.82003 9.13436 7.57727C9.13436 7.33452 8.9376 7.13782 8.6949 7.13782H6.06445C5.82176 7.13782 5.625 7.33452 5.625 7.57727C5.625 7.82003 5.8217 8.01672 6.06445 8.01672Z" fill="url(#paint4_linear_710_320)"/>
<path d="M8.69484 8.8595H7.5293C7.2866 8.8595 7.08984 9.0562 7.08984 9.29895C7.08984 9.5417 7.2866 9.7384 7.5293 9.7384H8.6949C8.9376 9.7384 9.13436 9.5417 9.13436 9.29895C9.13436 9.0562 8.93754 8.8595 8.69484 8.8595Z" fill="url(#paint5_linear_710_320)"/>
<path d="M6.06445 11.46H8.6949C8.9376 11.46 9.13436 11.2633 9.13436 11.0205C9.13436 10.7778 8.9376 10.5811 8.6949 10.5811H6.06445C5.82176 10.5811 5.625 10.7778 5.625 11.0205C5.625 11.2633 5.8217 11.46 6.06445 11.46Z" fill="url(#paint6_linear_710_320)"/>
<path d="M8.69484 12.3026H7.5293C7.2866 12.3026 7.08984 12.4993 7.08984 12.7421C7.08984 12.9848 7.2866 13.1815 7.5293 13.1815H8.6949C8.9376 13.1815 9.13436 12.9848 9.13436 12.7421C9.13436 12.4993 8.93754 12.3026 8.69484 12.3026Z" fill="url(#paint7_linear_710_320)"/>
<path d="M6.06445 14.9032H8.6949C8.9376 14.9032 9.13436 14.7065 9.13436 14.4637C9.13436 14.221 8.9376 14.0243 8.6949 14.0243H6.06445C5.82176 14.0243 5.625 14.221 5.625 14.4637C5.625 14.7065 5.8217 14.9032 6.06445 14.9032Z" fill="url(#paint8_linear_710_320)"/>
<path d="M16.7565 9.97447C16.9992 9.97447 17.1959 9.77777 17.1959 9.53502V8.74494C17.1959 8.13117 16.6966 7.63184 16.0828 7.63184H14.006C13.3922 7.63184 12.8928 8.13117 12.8928 8.74494V16.3478C12.8928 16.9616 13.3922 17.4609 14.006 17.4609H16.0828C16.6966 17.4609 17.1959 16.9616 17.1959 16.3478V15.5578C17.1959 15.315 16.9992 15.1183 16.7565 15.1183C16.5137 15.1183 16.317 15.315 16.317 15.5578V16.3478C16.317 16.477 16.212 16.582 16.0828 16.582H14.006C13.8768 16.582 13.7717 16.477 13.7717 16.3478V8.74494C13.7717 8.6158 13.8768 8.51074 14.006 8.51074H16.0828C16.212 8.51074 16.317 8.6158 16.317 8.74494V9.53502C16.317 9.77777 16.5137 9.97447 16.7565 9.97447V9.97447Z" fill="url(#paint9_linear_710_320)"/>
<path d="M13.3318 6.92938C13.5698 6.92938 13.7629 6.73619 13.7629 6.49789C13.7629 6.25959 13.5699 6.06641 13.3318 6.06641C13.0936 6.06641 12.9006 6.25959 12.9006 6.49789C12.9006 6.73619 13.0936 6.92938 13.3318 6.92938Z" fill="url(#paint10_linear_710_320)"/>
<defs>
<linearGradient id="paint0_linear_710_320" x1="7.23001" y1="0" x2="7.23001" y2="30.0001" gradientUnits="userSpaceOnUse">
<stop stop-color="white"/>
<stop offset="1" stop-color="white"/>
</linearGradient>
<linearGradient id="paint1_linear_710_320" x1="7.22999" y1="15.8203" x2="7.22999" y2="28.2422" gradientUnits="userSpaceOnUse">
<stop stop-color="white"/>
<stop offset="1" stop-color="white"/>
</linearGradient>
<linearGradient id="paint2_linear_710_320" x1="7.37968" y1="3.6947" x2="7.37968" y2="4.57361" gradientUnits="userSpaceOnUse">
<stop stop-color="white"/>
<stop offset="1" stop-color="white"/>
</linearGradient>
<linearGradient id="paint3_linear_710_320" x1="8.1121" y1="5.41626" x2="8.1121" y2="6.29517" gradientUnits="userSpaceOnUse">
<stop stop-color="white"/>
<stop offset="1" stop-color="white"/>
</linearGradient>
<linearGradient id="paint4_linear_710_320" x1="7.37968" y1="7.13782" x2="7.37968" y2="8.01672" gradientUnits="userSpaceOnUse">
<stop stop-color="white"/>
<stop offset="1" stop-color="white"/>
</linearGradient>
<linearGradient id="paint5_linear_710_320" x1="8.1121" y1="8.8595" x2="8.1121" y2="9.7384" gradientUnits="userSpaceOnUse">
<stop stop-color="white"/>
<stop offset="1" stop-color="white"/>
</linearGradient>
<linearGradient id="paint6_linear_710_320" x1="7.37968" y1="10.5811" x2="7.37968" y2="11.46" gradientUnits="userSpaceOnUse">
<stop stop-color="white"/>
<stop offset="1" stop-color="white"/>
</linearGradient>
<linearGradient id="paint7_linear_710_320" x1="8.1121" y1="12.3026" x2="8.1121" y2="13.1815" gradientUnits="userSpaceOnUse">
<stop stop-color="white"/>
<stop offset="1" stop-color="white"/>
</linearGradient>
<linearGradient id="paint8_linear_710_320" x1="7.37968" y1="14.0243" x2="7.37968" y2="14.9032" gradientUnits="userSpaceOnUse">
<stop stop-color="white"/>
<stop offset="1" stop-color="white"/>
</linearGradient>
<linearGradient id="paint9_linear_710_320" x1="15.0444" y1="7.63184" x2="15.0444" y2="17.4609" gradientUnits="userSpaceOnUse">
<stop stop-color="white"/>
<stop offset="1" stop-color="white"/>
</linearGradient>
<linearGradient id="paint10_linear_710_320" x1="13.3318" y1="6.06641" x2="13.3318" y2="6.92938" gradientUnits="userSpaceOnUse">
<stop stop-color="white"/>
<stop offset="1" stop-color="white"/>
</linearGradient>
</defs>
</svg>
